{"title":"Resistance 2011 BRRip Ac3 Xvid ANALOG","uid":7118216,"size":1555286067,"categoryP":"video","categoryS":"movies","magnet":"?xt=urn:btih:11688318ea8a2100c9c996ab5817ed1156a7a786&amp;dn=Resistance+2011+BRRip+Ac3+Xvid+ANALOG&amp;tr=udp%3A%2F%2Ftracker.openbittorrent.com%3A80&amp;tr=udp%3A%2F%2Fopen.demonii.com%3A1337&amp;tr=udp%3A%2F%2Ftracker.coppersurfer.tk%3A6969&amp;tr=udp%3A%2F%2Fexodus.desync.com%3A6969","seeders":1,"leechers":0,"uploader":"Hackulus","files":-1,"time":1332280406,"description":"\n &lt;a href=&quot;\nhttp://www.imdb.com/title/tt1391116/&quot; rel=&quot;nofollow&quot; target=&quot;_NEW&quot;&gt;\nhttp://www.imdb.com/title/tt1391116/&lt;/a&gt;\n\nComplete name                    : Resistance.2011.BRRip.Ac3.Xvid.ANALOGR.2011.BRR.ANALOG.avi\nFormat                           : AVI\nFormat/Info                      : Audio Video Interleave\nFormat profile                   : OpenDML\nFile size                        : 1.44 GiB\nDuration                         : 1h 31mn\nOverall bit rate                 : 2 254 Kbps\nWriting library                  : VirtualDub build 32842/release\n\nVideo\nID                               : 0\nFormat                           : MPEG-4 Visual\nFormat profile                   : Advanced Simple@L5\nFormat settings, BVOP            : 2\nFormat settings, QPel            : No\nFormat settings, GMC             : No warppoints\nFormat settings, Matrix          : Default (H.263)\nMuxing mode                      : Packed bitstream\nCodec ID                         : XVID\nCodec ID/Hint                    : XviD\nDuration                         : 1h 31mn\nBit rate                         : 1 796 Kbps\nWidth                            : 720 pixels\nHeight                           : 304 pixels\nDisplay aspect ratio             : 2.35:1\nFrame rate                       : 24.000 fps\nColor space                      : YUV\nChroma subsampling               : 4:2:0\nBit depth                        : 8 bits\nScan type                        : Progressive\nCompression mode                 : Lossy\nBits/(Pixel*Frame)               : 0.342\nStream size                      : 1.15 GiB (80%)\nWriting library                  : XviD 58\n\nAudio\nID                               : 1\nFormat                           : AC-3\nFormat/Info                      : Audio Coding 3\nMode extension                   : CM (complete main)\nCodec ID                         : 2000\nDuration                         : 1h 31mn\nBit rate mode                    : Constant\nBit rate                         : 448 Kbps\nChannel(s)                       : 6 channels\nChannel positions                : Front: L C R, Side: L R, LFE\nSampling rate                    : 48.0 KHz\nBit depth                        : 16 bits\nCompression mode                 : Lossy\nStream size                      : 293 MiB (20%)\nAlignment                        : Aligned on interleaves\nInterleave, duration             : 42 ms (1.00 video frame)\nInterleave, preload duration     : 512 ms\nSubs                             : Yes/Hardcoded.English.Where.Needed\nSample                           : Yes\nSource                           : 720p HDC  THANX\nAs humans, we perceive the world in analog. Everything we see and hear is a continuous transmission of information to our senses.\n&lt;a class=&quot;__cf_email__&quot; href=&quot;/cdn-cgi/l/email-protection&quot; data-cfemail=&quot;9dfcf3fcf1f2fab3edb3afb3edddf5e8eef5f0fcf4f1b3fef2f0&quot;&gt;[email&amp;#160;protected]&lt;/a&gt;&lt;script cf-hash='f9e31' type=&quot;text/javascript&quot;&gt;\n/* &lt;![CDATA[ */!function(){try{var t=&quot;currentScript&quot;in document?document.currentScript:function(){for(var t=document.getElementsByTagName(&quot;script&quot;),e=t.length;e--;)if(t[e].getAttribute(&quot;cf-hash&quot;))return t[e]}();if(t&amp;&amp;t.previousSibling){var e,r,n,i,c=t.previousSibling,a=c.getAttribute(&quot;data-cfemail&quot;);if(a){for(e=&quot;&quot;,r=parseInt(a.substr(0,2),16),n=2;a.length-n;n+=2)i=parseInt(a.substr(n,2),16)^r,e+=String.fromCharCode(i);e=document.createTextNode(e),c.parentNode.replaceChild(e,c)}}}catch(u){}}();/* ]]&gt; */&lt;/script&gt;\n\nGREETS:\n\nRx / REFiLL / BHRG / 26K /DTRG / Xtreme Encode / INSPiRAL / KoDeKinG /LEGiTiMATE / LEGi0N / HDC / PRESTIGE / HOPE\nAND ALL THE OUTHER PLACES I LURK AROUND AT!! \n\n","torrent":{"xt":"urn:btih:11688318ea8a2100c9c996ab5817ed1156a7a786","amp;dn":"Resistance+2011+BRRip+Ac3+Xvid+ANALOG","amp;tr":["udp%3A%2F%2Ftracker.openbittorrent.com%3A80","udp%3A%2F%2Fopen.demonii.com%3A1337","udp%3A%2F%2Ftracker.coppersurfer.tk%3A6969","udp%3A%2F%2Fexodus.desync.com%3A6969"],"infoHash":"11688318ea8a2100c9c996ab5817ed1156a7a786","infoHashBuffer":{"type":"Buffer","data":[17,104,131,24,234,138,33,0,201,201,150,171,88,23,237,17,86,167,167,134]},"announce":[],"urlList":[]}}